<svg width="113" height="44" viewBox="0 0 113 44" fill="none" xmlns="http://www.w3.org/2000/svg">
<path d="M21.52 29.108C21.172 29.108 20.89 29.006 20.674 28.802C20.47 28.586 20.368 28.298 20.368 27.938V17.408C20.368 17.06 20.464 16.79 20.656 16.598C20.86 16.406 21.136 16.31 21.484 16.31H25.912C27.268 16.31 28.324 16.652 29.08 17.336C29.836 18.008 30.214 18.956 30.214 20.18C30.214 21.404 29.836 22.358 29.08 23.042C28.324 23.726 27.268 24.068 25.912 24.068H22.69V27.938C22.69 28.298 22.582 28.586 22.366 28.802C22.162 29.006 21.88 29.108 21.52 29.108ZM25.624 22.286C27.22 22.286 28.018 21.59 28.018 20.198C28.018 18.806 27.22 18.11 25.624 18.11H22.69V22.286H25.624ZM36.791 20.018C37.103 19.994 37.349 20.06 37.529 20.216C37.709 20.372 37.799 20.606 37.799 20.918C37.799 21.242 37.721 21.482 37.565 21.638C37.409 21.794 37.127 21.896 36.719 21.944L36.179 21.998C35.471 22.07 34.949 22.31 34.613 22.718C34.289 23.126 34.127 23.636 34.127 24.248V28.028C34.127 28.376 34.019 28.646 33.803 28.838C33.587 29.018 33.317 29.108 32.993 29.108C32.669 29.108 32.399 29.018 32.183 28.838C31.979 28.646 31.877 28.376 31.877 28.028V21.062C31.877 20.726 31.979 20.468 32.183 20.288C32.399 20.108 32.663 20.018 32.975 20.018C33.287 20.018 33.539 20.108 33.731 20.288C33.923 20.456 34.019 20.702 34.019 21.026V21.746C34.247 21.218 34.583 20.81 35.027 20.522C35.483 20.234 35.987 20.072 36.539 20.036L36.791 20.018ZM42.6059 29.144C41.7059 29.144 40.9139 28.958 40.2299 28.586C39.5579 28.214 39.0359 27.68 38.6639 26.984C38.2919 26.288 38.1059 25.478 38.1059 24.554C38.1059 23.63 38.2919 22.826 38.6639 22.142C39.0359 21.446 39.5579 20.912 40.2299 20.54C40.9139 20.168 41.7059 19.982 42.6059 19.982C43.5059 19.982 44.2919 20.168 44.9639 20.54C45.6479 20.912 46.1699 21.446 46.5299 22.142C46.9019 22.826 47.0879 23.63 47.0879 24.554C47.0879 25.478 46.9019 26.288 46.5299 26.984C46.1699 27.68 45.6479 28.214 44.9639 28.586C44.2919 28.958 43.5059 29.144 42.6059 29.144ZM42.5879 27.398C43.3199 27.398 43.8779 27.158 44.2619 26.678C44.6459 26.198 44.8379 25.49 44.8379 24.554C44.8379 23.63 44.6459 22.928 44.2619 22.448C43.8779 21.956 43.3259 21.71 42.6059 21.71C41.8859 21.71 41.3279 21.956 40.9319 22.448C40.5479 22.928 40.3559 23.63 40.3559 24.554C40.3559 25.49 40.5479 26.198 40.9319 26.678C41.3159 27.158 41.8679 27.398 42.5879 27.398ZM56.2894 16.22C56.6254 16.22 56.9014 16.316 57.1174 16.508C57.3334 16.7 57.4414 16.952 57.4414 17.264V28.028C57.4414 28.352 57.3394 28.61 57.1354 28.802C56.9314 28.994 56.6614 29.09 56.3254 29.09C55.9894 29.09 55.7194 28.994 55.5154 28.802C55.3114 28.61 55.2094 28.352 55.2094 28.028V27.578C54.9454 28.07 54.5614 28.454 54.0574 28.73C53.5654 29.006 53.0014 29.144 52.3654 29.144C51.6094 29.144 50.9314 28.952 50.3314 28.568C49.7434 28.184 49.2814 27.644 48.9454 26.948C48.6214 26.24 48.4594 25.43 48.4594 24.518C48.4594 23.606 48.6214 22.808 48.9454 22.124C49.2814 21.44 49.7434 20.912 50.3314 20.54C50.9194 20.168 51.5974 19.982 52.3654 19.982C53.0014 19.982 53.5654 20.114 54.0574 20.378C54.5494 20.642 54.9274 21.014 55.1914 21.494V17.228C55.1914 16.928 55.2874 16.688 55.4794 16.508C55.6834 16.316 55.9534 16.22 56.2894 16.22ZM52.9594 27.398C53.6794 27.398 54.2314 27.152 54.6154 26.66C55.0114 26.168 55.2094 25.466 55.2094 24.554C55.2094 23.642 55.0114 22.946 54.6154 22.466C54.2314 21.974 53.6854 21.728 52.9774 21.728C52.2574 21.728 51.6994 21.968 51.3034 22.448C50.9074 22.928 50.7094 23.618 50.7094 24.518C50.7094 25.43 50.9074 26.138 51.3034 26.642C51.6994 27.146 52.2514 27.398 52.9594 27.398ZM66.7039 20.018C67.0519 20.018 67.3279 20.114 67.5319 20.306C67.7359 20.498 67.8379 20.756 67.8379 21.08V28.064C67.8379 28.376 67.7299 28.628 67.5139 28.82C67.3099 29.012 67.0399 29.108 66.7039 29.108C66.3799 29.108 66.1219 29.018 65.9299 28.838C65.7379 28.658 65.6419 28.412 65.6419 28.1V27.65C65.3659 28.13 64.9939 28.502 64.5259 28.766C64.0579 29.018 63.5299 29.144 62.9419 29.144C60.7819 29.144 59.7019 27.932 59.7019 25.508V21.08C59.7019 20.756 59.8039 20.498 60.0079 20.306C60.2119 20.114 60.4819 20.018 60.8179 20.018C61.1659 20.018 61.4419 20.114 61.6459 20.306C61.8499 20.498 61.9519 20.756 61.9519 21.08V25.526C61.9519 26.15 62.0779 26.612 62.3299 26.912C62.5819 27.212 62.9779 27.362 63.5179 27.362C64.1419 27.362 64.6399 27.158 65.0119 26.75C65.3959 26.33 65.5879 25.778 65.5879 25.094V21.08C65.5879 20.756 65.6899 20.498 65.8939 20.306C66.0979 20.114 66.3679 20.018 66.7039 20.018ZM74.0858 29.144C73.2098 29.144 72.4358 28.958 71.7638 28.586C71.1038 28.214 70.5938 27.686 70.2338 27.002C69.8738 26.318 69.6938 25.52 69.6938 24.608C69.6938 23.696 69.8798 22.892 70.2518 22.196C70.6358 21.488 71.1698 20.942 71.8538 20.558C72.5378 20.174 73.3238 19.982 74.2118 19.982C74.6798 19.982 75.1478 20.048 75.6158 20.18C76.0958 20.312 76.5158 20.492 76.8758 20.72C77.2598 20.972 77.4518 21.29 77.4518 21.674C77.4518 21.938 77.3858 22.154 77.2538 22.322C77.1338 22.478 76.9718 22.556 76.7678 22.556C76.6358 22.556 76.4978 22.526 76.3538 22.466C76.2098 22.406 76.0658 22.334 75.9218 22.25C75.6578 22.094 75.4058 21.974 75.1658 21.89C74.9258 21.794 74.6498 21.746 74.3378 21.746C73.5938 21.746 73.0178 21.992 72.6098 22.484C72.2138 22.964 72.0158 23.66 72.0158 24.572C72.0158 25.472 72.2138 26.168 72.6098 26.66C73.0178 27.14 73.5938 27.38 74.3378 27.38C74.6378 27.38 74.9018 27.338 75.1298 27.254C75.3698 27.158 75.6338 27.032 75.9218 26.876C76.1018 26.768 76.2578 26.69 76.3898 26.642C76.5218 26.582 76.6538 26.552 76.7858 26.552C76.9778 26.552 77.1398 26.636 77.2718 26.804C77.4038 26.972 77.4698 27.182 77.4698 27.434C77.4698 27.638 77.4218 27.818 77.3258 27.974C77.2418 28.118 77.0978 28.25 76.8938 28.37C76.5218 28.61 76.0898 28.802 75.5978 28.946C75.1058 29.078 74.6018 29.144 74.0858 29.144ZM83.5936 27.434C84.1936 27.47 84.4936 27.74 84.4936 28.244C84.4936 28.532 84.3736 28.754 84.1336 28.91C83.9056 29.054 83.5756 29.114 83.1436 29.09L82.6576 29.054C80.6416 28.91 79.6336 27.83 79.6336 25.814V21.89H78.7336C78.4096 21.89 78.1576 21.818 77.9776 21.674C77.8096 21.53 77.7256 21.32 77.7256 21.044C77.7256 20.768 77.8096 20.558 77.9776 20.414C78.1576 20.27 78.4096 20.198 78.7336 20.198H79.6336V18.542C79.6336 18.218 79.7356 17.96 79.9396 17.768C80.1436 17.576 80.4196 17.48 80.7676 17.48C81.1036 17.48 81.3736 17.576 81.5776 17.768C81.7816 17.96 81.8836 18.218 81.8836 18.542V20.198H83.4136C83.7376 20.198 83.9836 20.27 84.1516 20.414C84.3316 20.558 84.4216 20.768 84.4216 21.044C84.4216 21.32 84.3316 21.53 84.1516 21.674C83.9836 21.818 83.7376 21.89 83.4136 21.89H81.8836V25.976C81.8836 26.864 82.2916 27.338 83.1076 27.398L83.5936 27.434ZM88.8521 29.144C87.5441 29.144 86.4881 28.886 85.6841 28.37C85.3001 28.142 85.1081 27.818 85.1081 27.398C85.1081 27.158 85.1741 26.966 85.3061 26.822C85.4381 26.666 85.6001 26.588 85.7921 26.588C85.9961 26.588 86.2781 26.684 86.6381 26.876C87.0221 27.056 87.3701 27.194 87.6821 27.29C88.0061 27.386 88.4141 27.434 88.9061 27.434C89.4101 27.434 89.8001 27.35 90.0761 27.182C90.3641 27.014 90.5081 26.78 90.5081 26.48C90.5081 26.276 90.4481 26.114 90.3281 25.994C90.2201 25.874 90.0161 25.766 89.7161 25.67C89.4281 25.562 88.9841 25.442 88.3841 25.31C87.3161 25.094 86.5481 24.788 86.0801 24.392C85.6241 23.996 85.3961 23.45 85.3961 22.754C85.3961 22.226 85.5521 21.752 85.8641 21.332C86.1761 20.9 86.6021 20.57 87.1421 20.342C87.6941 20.102 88.3181 19.982 89.0141 19.982C89.5181 19.982 90.0041 20.048 90.4721 20.18C90.9401 20.3 91.3601 20.48 91.7321 20.72C92.1161 20.96 92.3081 21.278 92.3081 21.674C92.3081 21.914 92.2421 22.118 92.1101 22.286C91.9781 22.442 91.8161 22.52 91.6241 22.52C91.4921 22.52 91.3601 22.496 91.2281 22.448C91.1081 22.388 90.9521 22.304 90.7601 22.196C90.4121 22.016 90.1121 21.884 89.8601 21.8C89.6081 21.704 89.2961 21.656 88.9241 21.656C88.4801 21.656 88.1261 21.746 87.8621 21.926C87.6101 22.106 87.4841 22.352 87.4841 22.664C87.4841 22.964 87.6161 23.192 87.8801 23.348C88.1441 23.504 88.6541 23.66 89.4101 23.816C90.2141 23.984 90.8441 24.176 91.3001 24.392C91.7561 24.608 92.0801 24.878 92.2721 25.202C92.4761 25.526 92.5781 25.94 92.5781 26.444C92.5781 27.26 92.2361 27.914 91.5521 28.406C90.8801 28.898 89.9801 29.144 88.8521 29.144Z" fill="#00C2FF"/>
</svg>
