<svg width="103" height="44" viewBox="0 0 103 44" fill="none" xmlns="http://www.w3.org/2000/svg">
<path d="M26.038 29.162C24.814 29.162 23.74 28.898 22.816 28.37C21.904 27.842 21.202 27.086 20.71 26.102C20.218 25.118 19.972 23.966 19.972 22.646C19.972 21.326 20.218 20.18 20.71 19.208C21.202 18.224 21.904 17.468 22.816 16.94C23.74 16.412 24.814 16.148 26.038 16.148C26.83 16.148 27.574 16.268 28.27 16.508C28.966 16.736 29.584 17.072 30.124 17.516C30.28 17.636 30.388 17.762 30.448 17.894C30.508 18.026 30.538 18.188 30.538 18.38C30.538 18.644 30.466 18.866 30.322 19.046C30.178 19.226 30.004 19.316 29.8 19.316C29.56 19.316 29.314 19.232 29.062 19.064C28.546 18.68 28.066 18.416 27.622 18.272C27.178 18.116 26.686 18.038 26.146 18.038C24.898 18.038 23.95 18.428 23.302 19.208C22.666 19.988 22.348 21.134 22.348 22.646C22.348 24.17 22.666 25.322 23.302 26.102C23.95 26.882 24.898 27.272 26.146 27.272C26.662 27.272 27.136 27.194 27.568 27.038C28.012 26.882 28.51 26.618 29.062 26.246C29.182 26.174 29.302 26.114 29.422 26.066C29.542 26.018 29.668 25.994 29.8 25.994C30.004 25.994 30.178 26.084 30.322 26.264C30.466 26.444 30.538 26.666 30.538 26.93C30.538 27.11 30.508 27.272 30.448 27.416C30.388 27.548 30.28 27.674 30.124 27.794C29.584 28.238 28.966 28.58 28.27 28.82C27.574 29.048 26.83 29.162 26.038 29.162ZM36.2074 29.144C35.3074 29.144 34.5154 28.958 33.8314 28.586C33.1594 28.214 32.6374 27.68 32.2654 26.984C31.8934 26.288 31.7074 25.478 31.7074 24.554C31.7074 23.63 31.8934 22.826 32.2654 22.142C32.6374 21.446 33.1594 20.912 33.8314 20.54C34.5154 20.168 35.3074 19.982 36.2074 19.982C37.1074 19.982 37.8934 20.168 38.5654 20.54C39.2494 20.912 39.7714 21.446 40.1314 22.142C40.5034 22.826 40.6894 23.63 40.6894 24.554C40.6894 25.478 40.5034 26.288 40.1314 26.984C39.7714 27.68 39.2494 28.214 38.5654 28.586C37.8934 28.958 37.1074 29.144 36.2074 29.144ZM36.1894 27.398C36.9214 27.398 37.4794 27.158 37.8634 26.678C38.2474 26.198 38.4394 25.49 38.4394 24.554C38.4394 23.63 38.2474 22.928 37.8634 22.448C37.4794 21.956 36.9274 21.71 36.2074 21.71C35.4874 21.71 34.9294 21.956 34.5334 22.448C34.1494 22.928 33.9574 23.63 33.9574 24.554C33.9574 25.49 34.1494 26.198 34.5334 26.678C34.9174 27.158 35.4694 27.398 36.1894 27.398ZM47.659 19.982C48.715 19.982 49.501 20.282 50.017 20.882C50.533 21.482 50.791 22.388 50.791 23.6V28.028C50.791 28.364 50.689 28.628 50.485 28.82C50.293 29.012 50.023 29.108 49.675 29.108C49.327 29.108 49.051 29.012 48.847 28.82C48.643 28.628 48.541 28.364 48.541 28.028V23.726C48.541 23.042 48.409 22.544 48.145 22.232C47.893 21.92 47.491 21.764 46.939 21.764C46.291 21.764 45.769 21.968 45.373 22.376C44.989 22.784 44.797 23.33 44.797 24.014V28.028C44.797 28.364 44.695 28.628 44.491 28.82C44.287 29.012 44.011 29.108 43.663 29.108C43.315 29.108 43.039 29.012 42.835 28.82C42.643 28.628 42.547 28.364 42.547 28.028V21.062C42.547 20.75 42.649 20.498 42.853 20.306C43.057 20.114 43.333 20.018 43.681 20.018C43.993 20.018 44.245 20.114 44.437 20.306C44.641 20.486 44.743 20.726 44.743 21.026V21.512C45.043 21.02 45.445 20.642 45.949 20.378C46.453 20.114 47.023 19.982 47.659 19.982ZM57.6483 27.434C58.2483 27.47 58.5483 27.74 58.5483 28.244C58.5483 28.532 58.4283 28.754 58.1883 28.91C57.9603 29.054 57.6303 29.114 57.1982 29.09L56.7123 29.054C54.6963 28.91 53.6883 27.83 53.6883 25.814V21.89H52.7883C52.4643 21.89 52.2123 21.818 52.0323 21.674C51.8642 21.53 51.7802 21.32 51.7802 21.044C51.7802 20.768 51.8642 20.558 52.0323 20.414C52.2123 20.27 52.4643 20.198 52.7883 20.198H53.6883V18.542C53.6883 18.218 53.7903 17.96 53.9943 17.768C54.1983 17.576 54.4743 17.48 54.8223 17.48C55.1583 17.48 55.4283 17.576 55.6323 17.768C55.8363 17.96 55.9383 18.218 55.9383 18.542V20.198H57.4683C57.7923 20.198 58.0383 20.27 58.2063 20.414C58.3863 20.558 58.4763 20.768 58.4763 21.044C58.4763 21.32 58.3863 21.53 58.2063 21.674C58.0383 21.818 57.7923 21.89 57.4683 21.89H55.9383V25.976C55.9383 26.864 56.3463 27.338 57.1623 27.398L57.6483 27.434ZM63.5368 19.982C64.7608 19.982 65.6668 20.288 66.2548 20.9C66.8548 21.5 67.1548 22.418 67.1548 23.654V28.046C67.1548 28.37 67.0588 28.628 66.8668 28.82C66.6748 29 66.4108 29.09 66.0748 29.09C65.7628 29.09 65.5048 28.994 65.3008 28.802C65.1088 28.61 65.0128 28.358 65.0128 28.046V27.65C64.8088 28.118 64.4848 28.484 64.0408 28.748C63.6088 29.012 63.1048 29.144 62.5288 29.144C61.9408 29.144 61.4068 29.024 60.9268 28.784C60.4468 28.544 60.0688 28.214 59.7928 27.794C59.5168 27.374 59.3788 26.906 59.3788 26.39C59.3788 25.742 59.5408 25.232 59.8648 24.86C60.2008 24.488 60.7408 24.218 61.4848 24.05C62.2288 23.882 63.2548 23.798 64.5628 23.798H65.0128V23.384C65.0128 22.796 64.8868 22.37 64.6348 22.106C64.3828 21.83 63.9748 21.692 63.4108 21.692C63.0628 21.692 62.7088 21.746 62.3488 21.854C61.9888 21.95 61.5628 22.094 61.0708 22.286C60.7588 22.442 60.5308 22.52 60.3868 22.52C60.1708 22.52 59.9908 22.442 59.8468 22.286C59.7148 22.13 59.6488 21.926 59.6488 21.674C59.6488 21.47 59.6968 21.296 59.7928 21.152C59.9008 20.996 60.0748 20.852 60.3148 20.72C60.7348 20.492 61.2328 20.312 61.8088 20.18C62.3968 20.048 62.9728 19.982 63.5368 19.982ZM62.9788 27.524C63.5788 27.524 64.0648 27.326 64.4368 26.93C64.8208 26.522 65.0128 26 65.0128 25.364V24.986H64.6888C63.8848 24.986 63.2608 25.022 62.8168 25.094C62.3728 25.166 62.0548 25.292 61.8628 25.472C61.6708 25.652 61.5748 25.898 61.5748 26.21C61.5748 26.594 61.7068 26.912 61.9708 27.164C62.2468 27.404 62.5828 27.524 62.9788 27.524ZM73.3475 29.144C72.4715 29.144 71.6975 28.958 71.0255 28.586C70.3655 28.214 69.8555 27.686 69.4955 27.002C69.1355 26.318 68.9555 25.52 68.9555 24.608C68.9555 23.696 69.1415 22.892 69.5135 22.196C69.8975 21.488 70.4315 20.942 71.1155 20.558C71.7995 20.174 72.5855 19.982 73.4735 19.982C73.9415 19.982 74.4095 20.048 74.8775 20.18C75.3575 20.312 75.7775 20.492 76.1375 20.72C76.5215 20.972 76.7135 21.29 76.7135 21.674C76.7135 21.938 76.6475 22.154 76.5155 22.322C76.3955 22.478 76.2335 22.556 76.0295 22.556C75.8975 22.556 75.7595 22.526 75.6155 22.466C75.4715 22.406 75.3275 22.334 75.1835 22.25C74.9195 22.094 74.6675 21.974 74.4275 21.89C74.1875 21.794 73.9115 21.746 73.5995 21.746C72.8555 21.746 72.2795 21.992 71.8715 22.484C71.4755 22.964 71.2775 23.66 71.2775 24.572C71.2775 25.472 71.4755 26.168 71.8715 26.66C72.2795 27.14 72.8555 27.38 73.5995 27.38C73.8995 27.38 74.1635 27.338 74.3915 27.254C74.6315 27.158 74.8955 27.032 75.1835 26.876C75.3635 26.768 75.5195 26.69 75.6515 26.642C75.7835 26.582 75.9155 26.552 76.0475 26.552C76.2395 26.552 76.4015 26.636 76.5335 26.804C76.6655 26.972 76.7315 27.182 76.7315 27.434C76.7315 27.638 76.6835 27.818 76.5875 27.974C76.5035 28.118 76.3595 28.25 76.1555 28.37C75.7835 28.61 75.3515 28.802 74.8595 28.946C74.3675 29.078 73.8635 29.144 73.3475 29.144ZM82.8553 27.434C83.4553 27.47 83.7553 27.74 83.7553 28.244C83.7553 28.532 83.6353 28.754 83.3953 28.91C83.1673 29.054 82.8373 29.114 82.4053 29.09L81.9193 29.054C79.9033 28.91 78.8953 27.83 78.8953 25.814V21.89H77.9953C77.6713 21.89 77.4193 21.818 77.2393 21.674C77.0713 21.53 76.9873 21.32 76.9873 21.044C76.9873 20.768 77.0713 20.558 77.2393 20.414C77.4193 20.27 77.6713 20.198 77.9953 20.198H78.8953V18.542C78.8953 18.218 78.9973 17.96 79.2013 17.768C79.4053 17.576 79.6813 17.48 80.0293 17.48C80.3653 17.48 80.6353 17.576 80.8393 17.768C81.0433 17.96 81.1453 18.218 81.1453 18.542V20.198H82.6753C82.9993 20.198 83.2453 20.27 83.4133 20.414C83.5933 20.558 83.6833 20.768 83.6833 21.044C83.6833 21.32 83.5933 21.53 83.4133 21.674C83.2453 21.818 82.9993 21.89 82.6753 21.89H81.1453V25.976C81.1453 26.864 81.5533 27.338 82.3693 27.398L82.8553 27.434Z" fill="white"/>
</svg>
