<svg width="75" height="44" viewBox="0 0 75 44" fill="none" xmlns="http://www.w3.org/2000/svg">
<path d="M21.52 29.108C21.172 29.108 20.89 29 20.674 28.784C20.47 28.568 20.368 28.286 20.368 27.938V17.408C20.368 17.06 20.464 16.79 20.656 16.598C20.86 16.406 21.136 16.31 21.484 16.31H27.802C28.534 16.31 28.9 16.622 28.9 17.246C28.9 17.858 28.534 18.164 27.802 18.164H22.654V21.62H27.442C28.174 21.62 28.54 21.932 28.54 22.556C28.54 23.168 28.174 23.474 27.442 23.474H22.654V27.938C22.654 28.286 22.552 28.568 22.348 28.784C22.144 29 21.868 29.108 21.52 29.108ZM41.0282 27.614C41.1002 27.77 41.1362 27.926 41.1362 28.082C41.1362 28.358 41.0222 28.592 40.7942 28.784C40.5782 28.976 40.3262 29.072 40.0382 29.072C39.8462 29.072 39.6662 29.024 39.4982 28.928C39.3302 28.82 39.1982 28.658 39.1022 28.442L38.0222 26.03H31.6862L30.6062 28.442C30.5102 28.658 30.3782 28.82 30.2102 28.928C30.0422 29.024 29.8562 29.072 29.6522 29.072C29.3762 29.072 29.1242 28.976 28.8962 28.784C28.6682 28.592 28.5542 28.358 28.5542 28.082C28.5542 27.926 28.5902 27.77 28.6622 27.614L33.6302 16.94C33.7382 16.7 33.9002 16.52 34.1162 16.4C34.3442 16.268 34.5842 16.202 34.8362 16.202C35.0882 16.202 35.3222 16.268 35.5382 16.4C35.7662 16.52 35.9342 16.7 36.0422 16.94L41.0282 27.614ZM32.4782 24.23H37.2302L34.8542 18.884L32.4782 24.23ZM52.8673 30.764C52.9993 30.98 53.0653 31.19 53.0653 31.394C53.0653 31.67 52.9573 31.892 52.7413 32.06C52.5253 32.24 52.2733 32.33 51.9853 32.33C51.7693 32.33 51.5653 32.276 51.3733 32.168C51.1813 32.072 51.0253 31.922 50.9053 31.718L49.8433 29.972C49.6753 29.696 49.4533 29.492 49.1773 29.36C48.9133 29.228 48.5653 29.162 48.1333 29.162C46.8973 29.162 45.8233 28.898 44.9113 28.37C44.0113 27.842 43.3153 27.086 42.8233 26.102C42.3313 25.118 42.0853 23.966 42.0853 22.646C42.0853 21.326 42.3313 20.18 42.8233 19.208C43.3153 18.224 44.0113 17.468 44.9113 16.94C45.8233 16.412 46.8973 16.148 48.1333 16.148C49.3573 16.148 50.4193 16.412 51.3193 16.94C52.2313 17.468 52.9333 18.224 53.4253 19.208C53.9173 20.18 54.1633 21.326 54.1633 22.646C54.1633 24.074 53.8753 25.304 53.2993 26.336C52.7353 27.356 51.9253 28.1 50.8693 28.568C51.4213 28.76 51.8773 29.156 52.2373 29.756L52.8673 30.764ZM48.1333 27.308C49.2973 27.308 50.2033 26.906 50.8513 26.102C51.5113 25.298 51.8413 24.146 51.8413 22.646C51.8413 21.146 51.5113 20 50.8513 19.208C50.2033 18.404 49.2973 18.002 48.1333 18.002C46.9573 18.002 46.0393 18.404 45.3793 19.208C44.7313 20 44.4073 21.146 44.4073 22.646C44.4073 24.146 44.7313 25.298 45.3793 26.102C46.0393 26.906 46.9573 27.308 48.1333 27.308Z" fill="white"/>
</svg>
