<svg width="91" height="44" viewBox="0 0 91 44" fill="none" xmlns="http://www.w3.org/2000/svg">
<path d="M33.286 16.22C33.634 16.22 33.91 16.328 34.114 16.544C34.318 16.748 34.42 17.024 34.42 17.372V27.938C34.42 28.286 34.312 28.568 34.096 28.784C33.892 29 33.622 29.108 33.286 29.108C32.938 29.108 32.662 29 32.458 28.784C32.254 28.568 32.152 28.286 32.152 27.938V23.492H25.654V27.938C25.654 28.286 25.546 28.568 25.33 28.784C25.126 29 24.85 29.108 24.502 29.108C24.166 29.108 23.89 29 23.674 28.784C23.47 28.568 23.368 28.286 23.368 27.938V17.372C23.368 17.024 23.47 16.748 23.674 16.544C23.878 16.328 24.154 16.22 24.502 16.22C24.85 16.22 25.126 16.328 25.33 16.544C25.546 16.748 25.654 17.024 25.654 17.372V21.62H32.152V17.372C32.152 17.024 32.254 16.748 32.458 16.544C32.662 16.328 32.938 16.22 33.286 16.22ZM40.9653 29.144C40.0653 29.144 39.2733 28.958 38.5893 28.586C37.9173 28.214 37.3953 27.68 37.0233 26.984C36.6513 26.288 36.4653 25.478 36.4653 24.554C36.4653 23.63 36.6513 22.826 37.0233 22.142C37.3953 21.446 37.9173 20.912 38.5893 20.54C39.2733 20.168 40.0653 19.982 40.9653 19.982C41.8653 19.982 42.6513 20.168 43.3233 20.54C44.0073 20.912 44.5293 21.446 44.8893 22.142C45.2613 22.826 45.4473 23.63 45.4473 24.554C45.4473 25.478 45.2613 26.288 44.8893 26.984C44.5293 27.68 44.0073 28.214 43.3233 28.586C42.6513 28.958 41.8653 29.144 40.9653 29.144ZM40.9473 27.398C41.6793 27.398 42.2373 27.158 42.6213 26.678C43.0053 26.198 43.1973 25.49 43.1973 24.554C43.1973 23.63 43.0053 22.928 42.6213 22.448C42.2373 21.956 41.6853 21.71 40.9653 21.71C40.2453 21.71 39.6873 21.956 39.2913 22.448C38.9073 22.928 38.7153 23.63 38.7153 24.554C38.7153 25.49 38.9073 26.198 39.2913 26.678C39.6753 27.158 40.2273 27.398 40.9473 27.398ZM57.7628 19.982C58.7228 19.982 59.4548 20.27 59.9588 20.846C60.4748 21.41 60.7328 22.328 60.7328 23.6V28.028C60.7328 28.376 60.6248 28.646 60.4088 28.838C60.2048 29.018 59.9348 29.108 59.5988 29.108C59.2748 29.108 59.0048 29.018 58.7888 28.838C58.5848 28.646 58.4828 28.376 58.4828 28.028V23.6C58.4828 22.94 58.3628 22.472 58.1228 22.196C57.8948 21.908 57.5408 21.764 57.0608 21.764C56.4728 21.764 56.0048 21.968 55.6568 22.376C55.3088 22.772 55.1348 23.318 55.1348 24.014V28.028C55.1348 28.376 55.0268 28.646 54.8108 28.838C54.6068 29.018 54.3428 29.108 54.0188 29.108C53.6948 29.108 53.4248 29.018 53.2088 28.838C52.9928 28.646 52.8848 28.376 52.8848 28.028V23.6C52.8848 22.94 52.7648 22.472 52.5248 22.196C52.2968 21.908 51.9428 21.764 51.4628 21.764C50.8748 21.764 50.4068 21.968 50.0588 22.376C49.7228 22.772 49.5548 23.318 49.5548 24.014V28.028C49.5548 28.376 49.4468 28.646 49.2308 28.838C49.0148 29.018 48.7448 29.108 48.4208 29.108C48.0968 29.108 47.8268 29.018 47.6108 28.838C47.4068 28.646 47.3048 28.376 47.3048 28.028V21.062C47.3048 20.726 47.4128 20.468 47.6288 20.288C47.8448 20.108 48.1148 20.018 48.4388 20.018C48.7508 20.018 49.0028 20.108 49.1948 20.288C49.3988 20.456 49.5008 20.702 49.5008 21.026V21.458C49.7768 20.978 50.1428 20.612 50.5988 20.36C51.0668 20.108 51.6008 19.982 52.2008 19.982C53.5208 19.982 54.4028 20.534 54.8468 21.638C55.1108 21.134 55.5008 20.732 56.0168 20.432C56.5328 20.132 57.1148 19.982 57.7628 19.982ZM69.9856 26.588C70.1896 26.588 70.3516 26.666 70.4716 26.822C70.6036 26.978 70.6696 27.188 70.6696 27.452C70.6696 27.824 70.4476 28.136 70.0036 28.388C69.5956 28.616 69.1336 28.802 68.6176 28.946C68.1016 29.078 67.6096 29.144 67.1416 29.144C65.7256 29.144 64.6036 28.736 63.7756 27.92C62.9476 27.104 62.5336 25.988 62.5336 24.572C62.5336 23.672 62.7136 22.874 63.0736 22.178C63.4336 21.482 63.9376 20.942 64.5856 20.558C65.2456 20.174 65.9896 19.982 66.8176 19.982C67.6096 19.982 68.2996 20.156 68.8876 20.504C69.4756 20.852 69.9316 21.344 70.2556 21.98C70.5796 22.616 70.7416 23.366 70.7416 24.23C70.7416 24.746 70.5136 25.004 70.0576 25.004H64.7476C64.8196 25.832 65.0536 26.444 65.4496 26.84C65.8456 27.224 66.4216 27.416 67.1776 27.416C67.5616 27.416 67.8976 27.368 68.1856 27.272C68.4856 27.176 68.8216 27.044 69.1936 26.876C69.5536 26.684 69.8176 26.588 69.9856 26.588ZM66.8716 21.566C66.2596 21.566 65.7676 21.758 65.3956 22.142C65.0356 22.526 64.8196 23.078 64.7476 23.798H68.8156C68.7916 23.066 68.6116 22.514 68.2756 22.142C67.9396 21.758 67.4716 21.566 66.8716 21.566Z" fill="white"/>
</svg>
